<svg width="22" height="22" viewBox="0 0 22 22" fill="none" xmlns="http://www.w3.org/2000/svg">
<path fill-rule="evenodd" clip-rule="evenodd" d="M16.5 15.5824V6.41667C16.5 5.91041 16.0896 5.5 15.5833 5.5C15.0771 5.5 14.6667 5.91041 14.6667 6.41667V13.3703L7.06485 5.76849C6.70687 5.4105 6.12647 5.4105 5.76849 5.76849C5.4105 6.12647 5.4105 6.70687 5.76849 7.06485L13.3703 14.6667H6.41667C5.91041 14.6667 5.5 15.0771 5.5 15.5833C5.5 16.0896 5.91041 16.5 6.41667 16.5H15.5824C15.5855 16.5 15.5887 16.5 15.5918 16.5C15.7084 16.4989 15.8248 16.4757 15.9342 16.4304C16.0423 16.3857 16.1436 16.3194 16.2315 16.2315C16.3194 16.1436 16.3857 16.0423 16.4304 15.9342C16.3375 16.1583 16.1583 16.3375 15.9342 16.4304" fill="black"/>
</svg>
