<svg width="22" height="22" viewBox="0 0 22 22" fill="none" xmlns="http://www.w3.org/2000/svg">
<path d="M6.82272 1.8335C7.23005 1.8335 7.60536 2.05444 7.80311 2.41058L9.17474 4.88134C9.35432 5.20485 9.36278 5.59614 9.19727 5.92711L7.87589 8.56989C7.87589 8.56989 8.25882 10.5387 9.86145 12.1413C11.4641 13.7439 13.4262 14.1203 13.4262 14.1203L16.0686 12.7991C16.3998 12.6335 16.7914 12.642 17.115 12.822L19.5928 14.1995C19.9486 14.3973 20.1693 14.7725 20.1693 15.1796V18.0242C20.1693 19.4728 18.8237 20.519 17.4511 20.0559C14.6321 19.1047 10.2563 17.2936 7.48274 14.52C4.70916 11.7465 2.89808 7.37061 1.94689 4.55161C1.48376 3.17903 2.53003 1.8335 3.9786 1.8335H6.82272Z" stroke="#999999" stroke-width="1.8" stroke-linejoin="round"/>
<path d="M20.0991 9.16683C20.2233 8.33371 20.1826 7.4808 19.9769 6.6607C19.7053 5.57732 19.1458 4.55133 18.2986 3.70411C17.4514 2.8569 16.4254 2.29747 15.3421 2.02582C14.522 1.82017 13.6691 1.77945 12.8359 1.90363" stroke="#999999" stroke-width="1.8" stroke-linecap="round" stroke-linejoin="round"/>
<path d="M16.4675 9.16683C16.6117 8.20001 16.3116 7.17974 15.5673 6.43549C14.823 5.69123 13.8028 5.39111 12.8359 5.53524" stroke="#999999" stroke-width="1.8" stroke-linecap="round" stroke-linejoin="round"/>
</svg>
